<svg width="40" height="40" viewBox="0 0 40 40" fill="none" xmlns="http://www.w3.org/2000/svg">
<path d="M30.98 13.3928H27.44C27.2373 13.3932 27.0369 13.3507 26.8519 13.268C26.6668 13.1852 26.5015 13.0642 26.3667 12.9129L24.9267 11.2999C24.821 11.1806 24.6911 11.0851 24.5457 11.0197C24.4004 10.9543 24.2428 10.9204 24.0833 10.9204C23.9239 10.9204 23.7663 10.9543 23.6209 11.0197C23.4756 11.0851 23.3457 11.1806 23.24 11.2999L22 12.6796C21.7995 12.9038 21.5539 13.0832 21.2794 13.206C21.0048 13.3289 20.7075 13.3926 20.4067 13.3928H1.07333C0.509835 14.9876 0.149226 16.647 0 18.3318H18.28C18.4391 18.332 18.5966 18.3003 18.7432 18.2385C18.8898 18.1766 19.0225 18.086 19.1333 17.9718L20.84 16.1989C20.9447 16.0886 21.0709 16.001 21.2108 15.9414C21.3507 15.8818 21.5013 15.8515 21.6533 15.8523H21.72C21.88 15.8523 22.0381 15.8862 22.184 15.9516C22.3299 16.0171 22.4603 16.1127 22.5667 16.2322L24 17.8452C24.1347 17.9971 24.2999 18.1189 24.4849 18.2027C24.6698 18.2865 24.8703 18.3305 25.0733 18.3318H40C39.8572 16.6478 39.5034 14.9885 38.9467 13.3928H30.9467H30.98ZM11.0667 28.7095C11.2247 28.7089 11.3809 28.6768 11.5263 28.615C11.6717 28.5531 11.8033 28.4629 11.9133 28.3496L13.62 26.5767C13.7254 26.4674 13.8517 26.3803 13.9915 26.3208C14.1312 26.2613 14.2815 26.2304 14.4333 26.2301H14.5C14.6577 26.2319 14.8133 26.2667 14.9568 26.3321C15.1003 26.3975 15.2285 26.4922 15.3333 26.61L16.7667 28.223C16.9013 28.3767 17.0674 28.4997 17.2538 28.5836C17.4401 28.6676 17.6423 28.7105 17.8467 28.7095H38.08C38.8476 27.1281 39.4014 25.4515 39.7267 23.7239H20.3133C20.1097 23.7245 19.9082 23.682 19.7221 23.5993C19.536 23.5166 19.3694 23.3955 19.2333 23.244L17.8 21.6244C17.6943 21.5051 17.5644 21.4096 17.4191 21.3441C17.2737 21.2787 17.1161 21.2449 16.9567 21.2449C16.7972 21.2449 16.6396 21.2787 16.4943 21.3441C16.3489 21.4096 16.219 21.5051 16.1133 21.6244L14.88 23.0108C14.681 23.2351 14.4367 23.4146 14.1632 23.5376C13.8897 23.6605 13.5932 23.724 13.2933 23.7239H0.273333C0.598606 25.4515 1.15235 27.1281 1.92 28.7095H11.0667ZM25.4133 8.01396C25.5716 8.01487 25.7283 7.9834 25.8739 7.92151C26.0195 7.85961 26.1509 7.76859 26.26 7.65404L28 5.86775C28.1058 5.75934 28.2323 5.67336 28.372 5.61496C28.5118 5.55655 28.6619 5.52692 28.8133 5.52782H28.88C29.0395 5.52657 29.1975 5.55919 29.3434 5.62354C29.4894 5.68789 29.62 5.78248 29.7267 5.90108L31.16 7.52073C31.2961 7.67222 31.4626 7.79328 31.6487 7.87597C31.8349 7.95867 32.0363 8.00115 32.24 8.00063H36.0867C34.2097 5.51418 31.781 3.49736 28.9918 2.10901C26.2026 0.720667 23.1291 -0.00129057 20.0133 1.73185e-06C16.8976 0.00129403 13.8247 0.725801 11.0366 2.11646C8.24858 3.50712 5.82154 5.52596 3.94667 8.01396H25.4133ZM17.6867 33.6485H12.4267C12.2208 33.6509 12.0167 33.6093 11.8282 33.5266C11.6396 33.4438 11.4709 33.3218 11.3333 33.1686L9.9 31.5489C9.79316 31.4315 9.66295 31.3377 9.51772 31.2735C9.3725 31.2092 9.21546 31.1761 9.05667 31.1761C8.89788 31.1761 8.74084 31.2092 8.59561 31.2735C8.45039 31.3377 8.32018 31.4315 8.21333 31.5489L6.98 32.9353C6.78102 33.1596 6.53671 33.3392 6.26321 33.4621C5.9897 33.585 5.69321 33.6486 5.39333 33.6485H5.33333C7.21386 35.6534 9.48563 37.2514 12.0083 38.3439C14.5309 39.4364 17.2509 40 20 40C22.7491 40 25.4691 39.4364 27.9917 38.3439C30.5144 37.2514 32.7861 35.6534 34.6667 33.6485H17.6867Z" fill="#F8E226"/>
</svg>
